<?xml version="1.0" encoding="UTF-8"?>
<svg xmlns="http://www.w3.org/2000/svg" xmlns:xlink="http://www.w3.org/1999/xlink" width="20px" height="18px" viewBox="0 0 20 18" version="1.1">
<g id="surface1">
<path style=" stroke:none;fill-rule:evenodd;fill:rgb(0.784314%,53.333336%,81.960785%);fill-opacity:1;" d="M 9.132812 2.359375 C 8.371094 2.304688 7.707031 2.261719 7.039062 2.207031 C 6.644531 2.167969 6.511719 2.019531 6.480469 1.628906 C 6.410156 0.855469 6.863281 0.167969 7.542969 0.0507812 C 7.871094 -0.00390625 8.210938 0 8.542969 0 C 9.230469 0.00390625 9.921875 0.015625 10.613281 0.0351562 C 11.644531 0.0664062 12.683594 0.109375 13.71875 0.144531 C 13.910156 0.148438 13.953125 0.226562 13.90625 0.402344 C 13.816406 0.746094 13.636719 1.027344 13.371094 1.257812 C 12.722656 1.816406 11.9375 2.042969 11.117188 2.15625 "/>
<path style=" stroke:none;fill-rule:evenodd;fill:rgb(0.784314%,53.333336%,81.960785%);fill-opacity:1;" d="M 18.933594 8.257812 C 18.246094 8.238281 17.730469 7.964844 17.277344 7.582031 C 16.472656 6.910156 15.875 6.0625 15.363281 5.160156 C 15 4.511719 14.679688 3.839844 14.359375 3.167969 C 14.152344 2.730469 14.242188 2.511719 14.667969 2.277344 C 15.441406 1.847656 16.335938 2.117188 16.769531 2.917969 C 17.441406 4.160156 18.097656 5.402344 18.761719 6.644531 C 18.992188 7.074219 19.214844 7.507812 19.449219 7.933594 C 19.53125 8.085938 19.492188 8.160156 19.332031 8.191406 "/>
<path style=" stroke:none;fill-rule:evenodd;fill:rgb(0.784314%,53.333336%,81.960785%);fill-opacity:1;" d="M 15.410156 16.882812 C 15.015625 16.566406 14.785156 16.179688 14.714844 15.710938 C 14.597656 14.9375 14.777344 14.199219 15.027344 13.476562 C 15.375 12.457031 15.996094 11.582031 16.558594 10.675781 C 16.734375 10.394531 16.917969 10.121094 17.09375 9.847656 C 17.292969 9.542969 17.492188 9.480469 17.828125 9.628906 C 18.628906 9.972656 18.96875 10.898438 18.554688 11.691406 C 18.285156 12.207031 17.96875 12.695312 17.667969 13.195312 C 17.011719 14.277344 16.355469 15.359375 15.699219 16.441406 "/>
<path style=" stroke:none;fill-rule:evenodd;fill:rgb(0.784314%,53.333336%,81.960785%);fill-opacity:1;" d="M 6.421875 17.816406 C 6.203125 17.816406 5.984375 17.816406 5.765625 17.820312 C 5.613281 17.824219 5.566406 17.769531 5.589844 17.609375 C 5.683594 17.082031 5.996094 16.707031 6.417969 16.410156 C 7.066406 15.949219 7.8125 15.769531 8.578125 15.636719 C 9.859375 15.417969 11.144531 15.449219 12.433594 15.527344 C 12.824219 15.550781 12.980469 15.722656 12.996094 16.117188 C 13.039062 17.082031 12.417969 17.738281 11.457031 17.746094 C 10.09375 17.761719 8.730469 17.773438 7.363281 17.785156 C 7.050781 17.789062 6.738281 17.785156 6.421875 17.785156 "/>
<path style=" stroke:none;fill-rule:evenodd;fill:rgb(0.784314%,53.333336%,81.960785%);fill-opacity:1;" d="M 0 9.714844 C 0.480469 9.503906 0.945312 9.492188 1.410156 9.664062 C 2.324219 10.007812 3.03125 10.609375 3.546875 11.433594 C 4.167969 12.433594 4.789062 13.433594 5.410156 14.433594 C 5.648438 14.824219 5.605469 15.015625 5.226562 15.273438 C 4.496094 15.773438 3.582031 15.625 3.113281 14.875 C 2.382812 13.71875 1.6875 12.539062 0.980469 11.371094 C 0.691406 10.890625 0.402344 10.410156 0.117188 9.925781 "/>
<path style=" stroke:none;fill-rule:evenodd;fill:rgb(0.784314%,53.333336%,81.960785%);fill-opacity:1;" d="M 4.277344 0.894531 C 4.730469 1.25 4.964844 1.679688 4.996094 2.214844 C 5.054688 3.183594 4.816406 4.097656 4.394531 4.949219 C 3.882812 5.984375 3.292969 6.980469 2.730469 7.988281 C 2.578125 8.257812 2.355469 8.316406 2.0625 8.214844 C 1.277344 7.945312 0.898438 7.074219 1.21875 6.222656 C 1.332031 5.925781 1.5 5.644531 1.660156 5.371094 C 2.484375 3.941406 3.3125 2.519531 4.140625 1.09375 "/>
<path style=" stroke:none;fill-rule:evenodd;fill:rgb(0.784314%,53.333336%,81.960785%);fill-opacity:1;" d="M 10.855469 10.347656 C 10.84375 10.117188 10.8125 9.882812 10.828125 9.652344 C 10.925781 8.292969 12.136719 6.957031 13.472656 6.714844 C 13.621094 6.691406 13.769531 6.683594 13.921875 6.6875 C 14.167969 6.6875 14.226562 6.742188 14.175781 6.980469 C 14.007812 7.746094 13.617188 8.371094 12.839844 8.609375 C 11.957031 8.878906 11.339844 9.394531 10.992188 10.242188 C 10.972656 10.285156 10.941406 10.316406 10.917969 10.355469 "/>
<path style=" stroke:none;fill-rule:evenodd;fill:rgb(0.784314%,53.333336%,81.960785%);fill-opacity:1;" d="M 8.460938 10.339844 C 8.410156 10.242188 8.359375 10.148438 8.316406 10.050781 C 8.011719 9.371094 7.519531 8.90625 6.789062 8.699219 C 6.214844 8.542969 5.742188 8.222656 5.46875 7.675781 C 5.34375 7.433594 5.273438 7.15625 5.183594 6.894531 C 5.136719 6.761719 5.1875 6.691406 5.332031 6.671875 C 5.894531 6.597656 6.40625 6.738281 6.871094 7.039062 C 8.03125 7.789062 8.519531 8.890625 8.527344 10.238281 C 8.527344 10.269531 8.515625 10.300781 8.507812 10.332031 "/>
<path style=" stroke:none;fill-rule:evenodd;fill:rgb(0.784314%,53.333336%,81.960785%);fill-opacity:1;" d="M 9.800781 13.757812 C 9.628906 13.5625 9.488281 13.386719 9.332031 13.230469 C 9.21875 13.121094 9.082031 13.042969 8.957031 12.949219 C 8.902344 12.910156 8.824219 12.886719 8.792969 12.832031 C 8.734375 12.746094 8.703125 12.640625 8.660156 12.542969 C 8.746094 12.523438 8.835938 12.484375 8.921875 12.484375 C 9.515625 12.480469 10.105469 12.480469 10.699219 12.488281 C 10.761719 12.488281 10.824219 12.519531 10.886719 12.539062 C 10.863281 12.609375 10.863281 12.699219 10.820312 12.746094 "/>
</g>
</svg>
